<svg width="1357" height="316" viewBox="0 0 1357 316" fill="none" xmlns="http://www.w3.org/2000/svg">
<g clip-path="url(#clip0_5_6)">
<path d="M478.788 52C459.947 52 442.552 56.6894 426.607 66.0556C410.751 75.3285 398.296 88.4343 389.221 105.377C380.147 122.32 375.609 140.909 375.609 161.142C375.609 186.255 382.487 208.087 396.244 226.629C414.691 251.543 440.711 264 474.314 264C492.956 264 509.045 259.811 522.606 251.437C536.163 243.067 548.029 229.855 558.198 211.818L553.554 208.829C541.494 225.577 530.434 236.788 520.371 242.469C510.3 248.049 498.676 250.839 485.518 250.839C470.37 250.839 456.868 247.252 444.998 240.069C433.243 232.904 424.414 222.584 418.533 209.13C412.647 195.672 409.712 179.772 409.712 161.43C409.712 139.204 412.795 120.616 418.982 105.67C425.267 90.7197 433.837 79.861 444.702 73.0855C455.57 66.2082 467.728 62.7654 481.188 62.7654C497.23 62.7654 510.991 67.3022 522.449 76.3673C533.916 85.4409 542.745 100.289 548.923 120.921H553.554L548.923 52H543.691C542.588 56.7827 540.743 60.5224 538.152 63.2148C537.224 64.1281 536.125 64.8491 534.918 65.3366C533.711 65.8241 532.419 66.0685 531.117 66.0556C529.328 66.0556 526.338 64.9532 522.148 62.7611C507.9 55.587 493.452 52 478.796 52H478.788ZM2.39171 56.647L0 104.186H5.68244C6.3779 95.0148 8.56606 87.7347 12.2554 82.3499C15.9447 76.9736 20.3889 73.3314 25.571 71.4362C29.5572 70.037 36.2828 69.3416 45.7563 69.3416H70.123V224.229C70.123 235.588 69.0331 242.872 66.8407 246.065C63.2489 251.242 57.1721 253.828 48.5933 253.828H41.4182V259.353H127.388V253.828H120.357C112.483 253.828 106.652 251.734 102.865 247.553C100.172 244.458 98.8193 236.694 98.8193 224.233V69.3458H127.384C135.759 69.3458 142.481 70.745 147.57 73.5307C152.756 76.2274 156.89 80.4504 159.986 86.2338C161.873 89.8208 163.379 95.8077 164.468 104.186H170.151L167.903 56.6428L2.39171 56.647ZM183.623 56.647V62.1718H190.798C199.174 62.1718 205.157 64.1646 208.749 68.1502C211.336 71.1436 212.633 79.0639 212.633 91.9154V223.635C212.633 233.506 212.04 240.031 210.852 243.224C209.75 246.412 207.6 248.8 204.407 250.39C200.234 252.659 195.557 253.845 190.807 253.837H183.64V259.361H339.886L357.379 208.537H351.399C344.92 220.994 338.593 230.313 332.41 236.495C327.618 241.18 322.644 244.318 317.457 245.916C312.275 247.511 303.947 248.304 292.48 248.304H258.089C252.508 248.304 248.717 247.761 246.724 246.663C244.731 245.463 243.331 243.919 242.534 242.024C241.737 240.031 241.347 234.549 241.347 225.573V158.75H285.89C294.363 158.75 300.648 159.751 304.736 161.744C308.824 163.737 311.767 166.484 313.556 169.97C314.955 172.768 316.355 179.09 317.754 188.965H323.28V118.381H317.75C317.156 129.944 314.26 138.013 309.078 142.592C305.189 146.086 297.459 147.832 285.89 147.832H241.342V67.6965H296.958C307.03 67.6965 314.061 68.447 318.047 69.9394C323.03 72.034 326.774 75.0826 329.263 79.0682C331.85 83.0538 334.199 90.3805 336.299 101.044H342.129L339.882 56.647H183.623Z" fill="#002855"/>
<path d="M1061.19 52L1044.04 59.0384L1045.11 61.2305C1046.79 60.5606 1048.16 60.2256 1049.25 60.2256C1050.26 60.2256 1051.08 60.497 1051.7 61.0439C1052.37 61.5866 1052.86 62.6127 1053.15 64.1094C1053.45 65.5807 1053.59 69.5578 1053.59 76.045V128.282C1053.59 131.843 1053.31 134.243 1052.77 135.498C1052.22 136.749 1051.47 137.661 1050.51 138.199C1049.55 138.742 1047.74 139.018 1045.11 139.018V141.273H1073.31V139.018C1070.33 139.018 1068.3 138.721 1067.21 138.127C1066.13 137.511 1065.27 136.568 1064.76 135.435C1064.25 134.26 1064.01 131.873 1064.01 128.278V52H1061.19ZM1223.13 52C1221.33 52 1219.79 52.6275 1218.54 53.8826C1217.95 54.4634 1217.48 55.1591 1217.17 55.9269C1216.86 56.6947 1216.7 57.5184 1216.72 58.3473C1216.72 60.1069 1217.34 61.6121 1218.6 62.8756C1219.85 64.1306 1221.37 64.7539 1223.13 64.7539C1224.88 64.7539 1226.37 64.1306 1227.58 62.8756C1228.84 61.6121 1229.47 60.1069 1229.47 58.3473C1229.47 56.5877 1228.84 55.0994 1227.58 53.8826C1227.01 53.2752 1226.32 52.7942 1225.55 52.4706C1224.79 52.1471 1223.96 51.9882 1223.13 52.0042V52ZM1107.21 54.014L1100.62 75.6677H1102.76L1121.28 54.014H1107.21ZM732.911 56.1467L731.911 76.1171H734.294C734.591 72.2587 735.511 69.2059 737.063 66.9418C738.615 64.6818 740.481 63.1554 742.661 62.3626C744.336 61.7774 747.156 61.4849 751.133 61.4849H761.37V126.526C761.37 131.301 760.908 134.354 759.992 135.693C758.482 137.873 755.93 138.958 752.329 138.958H749.318V141.277H785.419V138.958H782.48C779.172 138.958 776.717 138.08 775.131 136.329C773.999 135.028 773.435 131.759 773.435 126.526V61.4849H785.427C788.947 61.4849 791.776 62.07 793.909 63.2402C796.088 64.3766 797.823 66.1489 799.125 68.5784C799.918 70.0836 800.541 72.5937 801.003 76.1129H803.395L802.453 56.1425H732.937L732.911 56.1467ZM828.677 82.0107C821.057 82.0107 814.713 84.7794 809.654 90.2999C804.629 95.7822 802.114 103.44 802.114 113.272C802.114 122.363 804.565 129.596 809.463 134.998C814.403 140.357 820.319 143.046 827.231 143.046C833.592 143.046 838.885 140.705 843.113 136.016C847.34 131.284 849.898 126.052 850.775 120.315L848.825 119.06C846.942 124.084 844.601 127.642 841.794 129.736C839.029 131.788 835.772 132.806 831.998 132.806C826.358 132.806 821.43 130.381 817.245 125.53C813.063 120.671 810.986 113.976 811.028 105.441H850.775C850.775 98.3178 848.702 92.6489 844.563 88.4216C840.42 84.1519 835.123 82.0192 828.677 82.0192V82.0107ZM886.435 82.0743C878.899 82.0743 872.441 84.9024 867.038 90.5543C861.682 96.1978 859.011 103.55 859.011 112.59C859.011 121.918 861.436 129.329 866.288 134.807C871.147 140.29 876.838 143.029 883.373 143.029C888.86 143.029 893.86 140.993 898.385 136.936C902.905 132.836 905.933 126.997 907.481 119.424L905.658 118.543C903.482 123.609 901.247 127.107 898.94 129.028C895.675 131.826 891.994 133.234 887.894 133.234C882.156 133.234 877.589 130.618 874.196 125.39C870.855 120.111 869.184 114.048 869.184 107.184C869.184 100.442 870.88 95.0148 874.273 90.919C876.817 87.8238 880.184 86.2762 884.374 86.2762C886.969 86.2762 889.005 86.9122 890.468 88.163C891.935 89.4562 892.77 91.343 892.978 93.8022C893.232 96.2741 893.707 97.9574 894.42 98.8308C895.671 100.421 897.541 101.214 900.005 101.214C901.849 101.214 903.27 100.73 904.279 99.7678C905.327 98.763 905.848 97.4655 905.848 95.8755C905.848 92.6531 904.025 89.5579 900.391 86.5814C896.744 83.571 892.096 82.0616 886.439 82.0616L886.435 82.0743ZM929.706 82.0743L912.366 89.1042L913.312 91.3642C914.944 90.7366 916.348 90.4314 917.519 90.4314C918.608 90.4314 919.469 90.6942 920.097 91.237C920.767 91.7882 921.242 92.81 921.539 94.3152C921.869 95.8246 922.048 100.031 922.048 106.938V128.278C922.048 132.467 921.513 135.316 920.474 136.817C919.469 138.284 917.506 139.022 914.58 139.022H913.316V141.269H941.758V139.022C938.62 139.022 936.525 138.742 935.482 138.199C934.433 137.561 933.601 136.619 933.099 135.498C932.636 134.574 932.412 132.17 932.412 128.278V97.9531C937.352 92.5174 942.313 89.7996 947.296 89.7996C950.515 89.7996 952.792 90.9868 954.136 93.3782C955.515 95.7229 956.201 99.5092 956.201 104.741V128.278C956.201 131.585 956.117 133.556 955.956 134.184C955.531 135.774 954.781 136.982 953.695 137.822C952.648 138.619 950.782 139.022 948.098 139.022H946.91V141.277H975.352V139.022C972.587 139.022 970.688 138.725 969.644 138.131C968.667 137.576 967.893 136.722 967.439 135.693C966.854 134.396 966.561 131.92 966.561 128.282V103.732C966.561 98.551 966.095 94.701 965.183 92.1867C963.839 88.5827 962.045 86.0133 959.776 84.4572C957.52 82.8714 954.815 82.0786 951.677 82.0786C945.57 82.0786 939.141 86.1405 932.407 94.2601V82.0786L929.706 82.0743ZM1008.07 82.0743C1003.29 82.0738 998.607 83.3739 994.511 85.8352C990.237 88.3071 986.781 92.1528 984.143 97.3892C981.552 102.575 980.254 107.807 980.254 113.077C980.254 120.328 982.417 126.857 986.721 132.674C991.827 139.586 998.714 143.037 1007.37 143.037C1012.69 143.037 1017.51 141.697 1021.82 139.022C1026.18 136.351 1029.58 132.365 1032.05 127.09C1034.52 121.812 1035.76 116.601 1035.76 111.445C1035.76 104.122 1033.52 97.6394 1029.04 91.9874C1023.76 85.3815 1016.77 82.0743 1008.07 82.0743ZM1108.02 82.0743C1103.26 82.0743 1098.74 83.3251 1094.47 85.8352C1090.2 88.3071 1086.74 92.1528 1084.1 97.3892C1081.51 102.575 1080.21 107.807 1080.21 113.077C1080.21 120.328 1082.37 126.857 1086.68 132.674C1091.79 139.586 1098.67 143.037 1107.33 143.037C1112.65 143.037 1117.47 141.697 1121.78 139.022C1126.14 136.351 1129.54 132.365 1132.01 127.09C1134.48 121.812 1135.72 116.601 1135.72 111.445C1135.72 104.122 1133.49 97.6394 1129 91.9874C1123.73 85.373 1116.73 82.0658 1108.02 82.0743ZM1171.57 82.0743C1164.87 82.0743 1159.37 84.1222 1155.06 88.2223C1150.8 92.3224 1148.66 97.2238 1148.66 102.918C1148.66 106.641 1149.61 110.054 1151.49 113.154C1153.37 116.206 1156.07 118.593 1159.59 120.306C1155.28 123.902 1152.51 126.692 1151.3 128.659C1150.13 130.627 1149.54 132.335 1149.54 133.802C1149.54 135.1 1149.98 136.27 1150.86 137.322C1151.78 138.326 1153.33 139.475 1155.51 140.773C1151.53 144.92 1149.4 147.175 1149.1 147.557C1146.89 150.321 1145.41 152.467 1144.71 154.019C1144.26 154.96 1144.03 155.986 1144.02 157.029C1144.02 159.293 1145.59 161.481 1148.73 163.567C1154.29 167.205 1161.12 169.024 1169.2 169.024C1179.71 169.024 1188.22 165.971 1194.75 159.853C1199.19 155.71 1201.41 151.275 1201.41 146.548C1201.41 143.113 1200.23 140.23 1197.89 137.881C1195.59 135.532 1192.49 134.095 1188.6 133.548C1186.04 133.171 1180.46 132.878 1171.83 132.67C1167.14 132.543 1164.22 132.399 1163.05 132.234C1161.04 131.937 1159.68 131.453 1158.97 130.783C1158.29 130.114 1157.96 129.427 1157.96 128.719C1157.96 127.879 1158.27 126.874 1158.89 125.708C1159.57 124.491 1160.82 123.088 1162.66 121.498C1165.63 122.337 1168.55 122.761 1171.4 122.761C1178.31 122.761 1183.81 120.853 1187.91 117.05C1192.01 113.243 1194.06 108.655 1194.06 103.304C1194.06 98.6146 1192.89 94.7604 1190.54 91.75H1198.01C1199.82 91.75 1200.86 91.6864 1201.15 91.5592C1201.44 91.4725 1201.68 91.2933 1201.85 91.0504C1202.06 90.6306 1202.16 89.8844 1202.16 88.8032C1202.16 87.8407 1202.03 87.1623 1201.78 86.785C1201.72 86.6606 1201.63 86.5509 1201.52 86.4632C1201.41 86.3755 1201.29 86.3117 1201.15 86.2762C1200.86 86.149 1199.81 86.0938 1198.01 86.0938H1185.84C1181.82 83.4226 1177.07 82.0786 1171.59 82.0786L1171.57 82.0743ZM1225.57 82.0743L1208.24 89.1042L1209.12 91.3642C1210.8 90.7366 1212.22 90.4314 1213.4 90.4314C1214.48 90.4314 1215.35 90.6942 1215.97 91.237C1216.59 91.7415 1217.05 92.6616 1217.34 94.0057C1217.72 95.8458 1217.91 99.8866 1217.91 106.124V128.282C1217.91 131.843 1217.61 134.248 1217.02 135.503C1216.48 136.753 1215.74 137.665 1214.77 138.203C1213.81 138.746 1211.92 139.022 1209.12 139.022V141.277H1237.07V139.022C1234.34 139.022 1232.46 138.725 1231.41 138.131C1230.38 137.521 1229.56 136.601 1229.08 135.503C1228.59 134.29 1228.33 131.882 1228.33 128.282V82.0786H1225.57L1225.57 82.0743ZM1271.98 82.0743C1264.44 82.0743 1257.97 84.9024 1252.57 90.5543C1247.21 96.1978 1244.54 103.55 1244.54 112.59C1244.54 121.918 1246.97 129.329 1251.82 134.807C1256.68 140.29 1262.37 143.029 1268.9 143.029C1274.39 143.029 1279.39 140.993 1283.91 136.936C1288.43 132.836 1291.47 126.997 1293.02 119.424L1291.19 118.543C1289.02 123.609 1286.78 127.107 1284.48 129.028C1281.21 131.826 1277.52 133.234 1273.42 133.234C1267.7 133.234 1263.13 130.618 1259.74 125.39C1256.39 120.111 1254.72 114.048 1254.72 107.184C1254.72 100.442 1256.41 95.0148 1259.8 90.919C1262.35 87.8238 1265.72 86.2762 1269.91 86.2762C1272.5 86.2762 1274.53 86.9122 1276 88.163C1277.46 89.4562 1278.3 91.343 1278.51 93.8022C1278.76 96.2741 1279.24 97.9574 1279.96 98.8308C1281.21 100.421 1283.08 101.214 1285.54 101.214C1287.39 101.214 1288.81 100.73 1289.81 99.7678C1290.85 98.763 1291.38 97.4655 1291.38 95.8755C1291.38 92.6531 1289.55 89.5579 1285.92 86.5814C1282.27 83.571 1277.63 82.0616 1271.98 82.0616L1271.98 82.0743ZM1329.31 82.0743C1324.53 82.0737 1319.84 83.3738 1315.74 85.8352C1311.48 88.3071 1308.02 92.1528 1305.38 97.3892C1302.79 102.575 1301.49 107.807 1301.49 113.077C1301.49 120.328 1303.65 126.857 1307.96 132.674C1313.07 139.586 1319.95 143.037 1328.61 143.037C1333.93 143.037 1338.75 141.697 1343.06 139.022C1347.41 136.351 1350.83 132.365 1353.3 127.09C1355.76 121.812 1357 116.601 1357 111.445C1357 104.122 1354.76 97.6394 1350.28 91.9874C1345.01 85.373 1338.02 82.0658 1329.31 82.0743ZM1170.51 85.0847C1173.86 85.0847 1176.6 86.4754 1178.74 89.2357C1181.62 93.0008 1183.07 98.2033 1183.07 104.86C1183.07 109.961 1182.05 113.709 1180 116.096C1177.95 118.483 1175.33 119.683 1172.14 119.683C1168.79 119.683 1166.03 118.297 1163.86 115.528C1161.02 111.894 1159.59 106.768 1159.59 100.154C1159.59 95.0487 1160.63 91.2624 1162.73 88.7905C1164.82 86.327 1167.41 85.0847 1170.51 85.0847ZM1006.12 86.1532C1010.73 86.1532 1014.52 88.1672 1017.49 92.1867C1021.88 98.0422 1024.08 106.081 1024.08 116.287C1024.08 124.449 1022.76 130.207 1020.13 133.552C1017.49 136.902 1014.14 138.572 1010.08 138.572C1004.64 138.572 1000.24 135.536 996.895 129.469C993.587 123.406 991.933 116.189 991.933 107.82C991.933 102.63 992.624 98.3814 994.007 95.0742C995.389 91.767 997.187 89.4646 999.409 88.163C1001.67 86.8274 1003.9 86.1532 1006.13 86.1532H1006.12ZM1106.08 86.1532C1110.69 86.1532 1114.48 88.1672 1117.46 92.1867C1121.85 98.0422 1124.05 106.081 1124.05 116.287C1124.05 124.449 1122.73 130.207 1120.09 133.552C1117.46 136.902 1114.11 138.572 1110.04 138.572C1104.6 138.572 1100.2 135.536 1096.85 129.469C1093.55 123.406 1091.89 116.189 1091.89 107.82C1091.89 102.63 1092.59 98.3814 1093.97 95.0742C1095.35 91.767 1097.15 89.4646 1099.37 88.163C1101.63 86.8274 1103.87 86.1532 1106.09 86.1532H1106.08ZM1327.37 86.1532C1331.97 86.1532 1335.76 88.1672 1338.73 92.1867C1343.12 98.0422 1345.32 106.081 1345.32 116.287C1345.32 124.449 1344 130.207 1341.36 133.552C1338.73 136.902 1335.38 138.572 1331.31 138.572C1325.88 138.572 1321.48 135.536 1318.13 129.469C1314.83 123.406 1313.17 116.189 1313.17 107.82C1313.17 102.63 1313.86 98.3814 1315.24 95.0742C1316.62 91.767 1318.42 89.4646 1320.65 88.163C1322.91 86.8274 1325.15 86.1532 1327.37 86.1532ZM825.158 86.4712C827.418 86.4712 829.576 87.1411 831.625 88.481C833.71 89.8095 835.35 91.7324 836.332 94.0014C837.01 95.5066 837.439 98.1015 837.646 101.786H811.024C811.49 96.9737 813.08 93.2298 815.799 90.5501C818.555 87.828 821.676 86.467 825.149 86.467L825.158 86.4712ZM1158.96 141.273C1164.02 141.981 1171.26 142.469 1180.68 142.715C1187.13 142.88 1191.44 143.436 1193.62 144.347C1195.75 145.276 1196.82 146.823 1196.82 149.003C1196.82 152.013 1195.01 154.837 1191.42 157.474C1187.85 160.154 1182.31 161.502 1174.78 161.502C1166.86 161.502 1160.81 160.201 1156.63 157.597C1154.2 156.096 1152.99 154.332 1152.99 152.327C1152.99 150.775 1153.49 149.083 1154.5 147.239C1155.5 145.403 1156.99 143.406 1158.95 141.273H1158.96ZM774.156 183.644L759.059 189.834L759.767 191.772C761.353 191.178 762.625 190.881 763.584 190.881C764.384 190.853 765.168 191.108 765.797 191.602C766.391 192.085 766.815 192.984 767.07 194.316C767.367 195.643 767.515 199.2 767.515 204.988V214.328C764.602 211.488 760.921 210.071 756.46 210.071C749.268 210.071 743.382 213.099 738.81 219.145C734.243 225.149 731.957 231.78 731.957 239.048C731.957 246.311 734.022 252.264 738.149 256.911C742.279 261.52 747.113 263.822 752.643 263.822C755.278 263.843 757.886 263.278 760.276 262.168C762.634 261.024 765.047 259.158 767.519 256.58V263.83H770.064L785.118 257.576L784.499 255.647C782.845 256.283 781.517 256.588 780.521 256.588C779.732 256.598 778.965 256.326 778.358 255.821C777.765 255.312 777.328 254.396 777.031 253.107C776.776 251.776 776.649 248.147 776.649 242.211V183.652H774.156V183.644ZM1241.73 183.644C1240.15 183.644 1238.8 184.195 1237.7 185.297C1237.18 185.808 1236.76 186.42 1236.49 187.096C1236.21 187.772 1236.07 188.497 1236.09 189.228C1236.09 190.775 1236.65 192.094 1237.76 193.205C1238.87 194.307 1240.19 194.863 1241.74 194.863C1243.29 194.863 1244.6 194.311 1245.67 193.205C1246.77 192.102 1247.33 190.775 1247.33 189.228C1247.33 187.676 1246.78 186.366 1245.67 185.293C1245.16 184.759 1244.55 184.335 1243.88 184.051C1243.2 183.766 1242.47 183.626 1241.74 183.639L1241.73 183.644ZM905.844 185.577C899.061 185.528 892.392 187.322 886.549 190.767C880.68 194.201 876.079 199.052 872.725 205.314C869.366 211.581 867.678 218.458 867.678 225.942C867.678 235.236 870.223 243.309 875.312 250.165C882.139 259.383 891.757 263.987 904.19 263.987C911.085 263.987 917.039 262.44 922.052 259.344C927.068 256.249 931.462 251.356 935.219 244.687L933.51 243.584C929.045 249.775 924.952 253.922 921.225 256.025C917.502 258.089 913.21 259.128 908.333 259.128C902.736 259.128 897.732 257.805 893.347 255.147C888.996 252.497 885.735 248.677 883.56 243.699C881.38 238.721 880.294 232.844 880.294 226.06C880.294 217.835 881.439 210.958 883.729 205.429C886.045 199.9 889.221 195.876 893.241 193.37C897.257 190.826 901.752 189.554 906.726 189.554C912.663 189.554 917.769 191.237 922.005 194.587C926.246 197.945 929.511 203.44 931.801 211.072H933.51L931.797 185.581H929.846C929.447 187.349 928.765 188.736 927.811 189.728C927.467 190.066 927.061 190.332 926.614 190.511C926.167 190.69 925.688 190.778 925.207 190.771C924.541 190.771 923.434 190.377 921.886 189.563C916.611 186.908 911.268 185.577 905.848 185.577H905.844ZM1151.59 187.29V189.338H1154.41C1157.25 189.338 1159.39 190.143 1160.83 191.772C1161.86 192.916 1162.38 195.842 1162.38 200.557V248.99C1162.38 253.264 1161.99 255.978 1161.21 257.123C1159.85 259.188 1157.58 260.218 1154.42 260.218H1151.59V262.266H1183.72V260.222H1180.79C1177.99 260.222 1175.89 259.417 1174.49 257.788C1173.45 256.644 1172.94 253.71 1172.94 248.986V227.193L1174.65 227.32H1176.2C1177.38 227.32 1178.91 227.277 1180.79 227.193L1206.17 262.257H1226.2V260.218C1222.11 259.773 1218.79 258.738 1216.25 257.123C1213.7 255.495 1210.66 252.217 1207.11 247.277L1191.62 225.772C1197.93 224.373 1202.58 221.969 1205.56 218.577C1208.58 215.185 1210.1 211.191 1210.1 206.578C1210.1 202.27 1208.77 198.564 1206.11 195.469C1203.62 192.415 1200.27 190.178 1196.49 189.045C1192.73 187.867 1186.86 187.281 1178.9 187.281H1151.58H1151.59L1151.59 187.29ZM1181.61 191.488C1186.45 191.488 1190.32 192.972 1193.23 195.918C1196.18 198.831 1197.66 202.626 1197.66 207.307C1197.66 212.098 1195.84 216.041 1192.19 219.141C1188.57 222.236 1183.18 223.788 1176.03 223.788H1174.76C1174.15 223.749 1173.54 223.732 1172.93 223.737V192.539C1176.58 191.839 1179.47 191.483 1181.61 191.488ZM1056.23 194.977C1054.72 198.7 1053.54 201.261 1052.69 202.66C1051.12 205.212 1049.2 207.538 1047 209.571C1044.9 211.488 1042.83 212.853 1040.81 213.663V215.494H1048.82V249.559C1048.82 253.205 1049.2 255.919 1049.98 257.691C1050.75 259.421 1051.95 260.765 1053.57 261.719C1055.08 262.609 1056.8 263.085 1058.55 263.101C1061.06 263.101 1063.5 262.202 1065.86 260.396C1068.22 258.556 1070.05 255.83 1071.33 252.213H1069.17C1068.55 253.688 1067.67 254.812 1066.53 255.588C1065.48 256.293 1064.24 256.676 1062.98 256.69C1061.5 256.69 1060.3 256.126 1059.33 254.982C1058.41 253.837 1057.96 251.619 1057.96 248.342V215.486H1069.79V211.611H1057.96V194.973L1056.23 194.977ZM812.432 210.071C805.723 210.071 800.134 212.509 795.668 217.377C791.237 222.211 789.028 228.952 789.028 237.614C789.028 245.611 791.182 251.988 795.499 256.737C799.85 261.46 805.07 263.818 811.147 263.818C816.757 263.818 821.426 261.757 825.149 257.627C828.873 253.459 831.116 248.85 831.892 243.805L830.179 242.702C828.512 247.121 826.447 250.25 823.987 252.094C821.549 253.9 818.678 254.808 815.358 254.808C810.383 254.808 806.045 252.671 802.356 248.388C798.667 244.114 796.843 238.212 796.886 230.691H831.888C831.888 224.428 830.064 219.425 826.417 215.702C822.762 211.946 818.106 210.063 812.423 210.063L812.432 210.071ZM967.342 210.131C963.136 210.132 959.011 211.275 955.404 213.438C951.643 215.617 948.598 219.014 946.278 223.622C943.989 228.189 942.844 232.802 942.844 237.445C942.844 243.822 944.752 249.571 948.547 254.702C953.042 260.778 959.106 263.818 966.739 263.818C971.425 263.818 975.666 262.643 979.461 260.286C983.303 257.924 986.306 254.422 988.477 249.771C990.652 245.132 991.742 240.54 991.742 236.003C991.742 229.558 989.77 223.834 985.831 218.861C981.187 213.035 975.026 210.127 967.354 210.127L967.342 210.131ZM1016.58 210.131C1012.04 210.131 1008.34 211.53 1005.46 214.328C1002.62 217.127 1001.2 220.616 1001.2 224.78C1001.2 227.985 1002.03 230.644 1003.69 232.751C1005.35 234.88 1008.85 237.28 1014.2 239.934C1019.54 242.588 1023.1 244.78 1024.87 246.518C1026.68 248.248 1027.58 250.377 1027.58 252.921C1027.58 255.02 1026.78 256.834 1025.15 258.348C1023.56 259.824 1021.5 260.549 1018.96 260.549C1015.35 260.549 1012.08 259.247 1009.16 256.631C1006.25 254.006 1004.28 250.122 1003.25 244.962H1001.42V263.033H1003.25C1003.73 262.075 1004.39 261.6 1005.24 261.6C1006.01 261.6 1007 261.787 1008.22 262.151C1012.21 263.254 1015.74 263.805 1018.84 263.805C1023.15 263.805 1027.05 262.406 1030.52 259.607C1034.02 256.767 1035.77 253.044 1035.77 248.435C1035.77 242.457 1032.02 237.648 1024.54 234.002L1016.46 230.067C1012.96 228.371 1010.64 226.769 1009.5 225.255C1008.31 223.771 1007.73 222.007 1007.73 219.946C1007.73 218.293 1008.51 216.779 1010.1 215.414C1011.68 214.049 1013.77 213.366 1016.35 213.366C1019.75 213.366 1022.53 214.341 1024.71 216.296C1026.91 218.246 1028.72 221.935 1030.13 227.349H1031.95V210.11H1030.13C1029.68 211 1029.3 211.56 1028.97 211.818C1028.57 212.104 1028.08 212.244 1027.58 212.217C1026.96 212.217 1025.7 211.933 1023.82 211.382C1020.98 210.534 1018.57 210.11 1016.58 210.11L1016.58 210.131ZM1095.61 210.131C1089.75 210.131 1085.2 211.462 1081.96 214.116C1078.7 216.766 1077.08 219.679 1077.08 222.851C1077.08 224.504 1077.5 225.819 1078.35 226.781C1079.24 227.74 1080.36 228.214 1081.73 228.214C1083.13 228.214 1084.26 227.752 1085.11 226.832C1085.99 225.912 1086.44 224.606 1086.44 222.91L1086.32 219.7C1086.32 218.077 1087.02 216.639 1088.42 215.384C1089.79 214.133 1091.63 213.506 1093.96 213.506C1097.01 213.506 1099.33 214.447 1100.91 216.33C1102.54 218.208 1103.36 221.672 1103.36 226.718V228.719C1094.65 231.886 1088.42 234.57 1084.65 236.783C1080.94 239.001 1078.32 241.363 1076.81 243.864C1075.71 245.67 1075.16 247.807 1075.16 250.284C1075.16 254.184 1076.27 257.343 1078.52 259.739C1080.81 262.134 1083.7 263.334 1087.2 263.334C1089.45 263.334 1091.57 262.868 1093.56 261.952C1094.9 261.325 1098.16 259.01 1103.36 254.986C1103.39 258.009 1103.95 260.142 1105.01 261.392C1106.09 262.643 1107.52 263.275 1109.33 263.275C1113.09 263.275 1117.04 260.519 1121.17 254.986V251.891C1118.96 254.095 1117.46 255.439 1116.69 255.919C1116.22 256.184 1115.69 256.319 1115.14 256.309C1114.59 256.313 1114.06 256.117 1113.64 255.757C1113.24 255.389 1112.96 254.672 1112.77 253.595C1112.58 252.493 1112.49 249.52 1112.49 244.691V227.502C1112.49 222.596 1112.16 219.349 1111.49 217.763C1110.46 215.329 1108.86 213.548 1106.68 212.403C1103.8 210.894 1100.11 210.135 1095.61 210.131ZM1243.89 210.131L1228.63 216.321L1229.4 218.314C1230.88 217.763 1232.13 217.483 1233.16 217.483C1234.12 217.483 1234.87 217.729 1235.43 218.204C1235.98 218.657 1236.38 219.467 1236.64 220.642C1236.97 222.266 1237.13 225.815 1237.13 231.31V250.839C1237.13 253.977 1236.88 256.097 1236.37 257.199C1235.89 258.301 1235.22 259.099 1234.37 259.573C1233.52 260.057 1231.87 260.294 1229.4 260.294V262.287H1254.01V260.294C1251.62 260.294 1249.95 260.04 1249.03 259.523C1248.13 258.98 1247.42 258.169 1247 257.203C1246.55 256.135 1246.33 254.015 1246.33 250.843V210.139H1243.89V210.131ZM1284.77 210.131C1278.13 210.131 1272.43 212.62 1267.68 217.593C1262.95 222.567 1260.59 229.041 1260.59 237.004C1260.59 245.23 1262.74 251.751 1267.01 256.58C1271.28 261.414 1276.3 263.83 1282.05 263.83C1286.89 263.83 1291.29 262.041 1295.27 258.463C1299.26 254.85 1301.93 249.707 1303.3 243.037L1301.69 242.266C1299.78 246.73 1297.81 249.804 1295.77 251.5C1292.9 253.968 1289.65 255.206 1286.04 255.206C1280.98 255.206 1276.97 252.9 1273.99 248.295C1271.03 243.64 1269.55 238.306 1269.55 232.259C1269.55 226.323 1271.04 221.545 1274.03 217.928C1276.28 215.202 1279.25 213.845 1282.94 213.845C1285.22 213.845 1287.01 214.4 1288.3 215.503C1289.6 216.648 1290.34 218.301 1290.52 220.481C1290.74 222.656 1291.16 224.127 1291.79 224.903C1292.9 226.302 1294.54 227.002 1296.71 227.002C1298.34 227.002 1299.59 226.578 1300.47 225.73C1301.4 224.839 1301.85 223.695 1301.85 222.291C1301.85 219.45 1300.25 216.737 1297.04 214.108C1293.84 211.458 1289.75 210.131 1284.77 210.131ZM1331.45 210.131C1325.59 210.131 1321.02 211.462 1317.78 214.116C1314.54 216.766 1312.92 219.679 1312.92 222.851C1312.92 224.504 1313.34 225.819 1314.19 226.781C1314.62 227.249 1315.14 227.62 1315.72 227.867C1316.3 228.115 1316.93 228.233 1317.57 228.214C1318.97 228.214 1320.09 227.752 1320.94 226.832C1321.83 225.912 1322.27 224.606 1322.27 222.91L1322.16 219.7C1322.16 218.077 1322.86 216.639 1324.26 215.384C1325.62 214.133 1327.46 213.506 1329.78 213.506C1332.84 213.506 1335.17 214.447 1336.76 216.33C1338.38 218.208 1339.19 221.672 1339.19 226.718V228.719C1330.5 231.886 1324.27 234.57 1320.51 236.783C1316.77 239.001 1314.16 241.363 1312.64 243.864C1311.53 245.67 1310.98 247.807 1310.98 250.284C1310.98 254.184 1312.1 257.343 1314.35 259.739C1316.64 262.134 1319.53 263.334 1323.05 263.334C1325.29 263.334 1327.41 262.868 1329.41 261.952C1330.73 261.325 1333.99 259.01 1339.19 254.986C1339.24 258.009 1339.79 260.142 1340.85 261.392C1341.92 262.643 1343.36 263.275 1345.17 263.275C1348.93 263.275 1352.87 260.519 1357 254.986V251.891C1354.79 254.095 1353.29 255.439 1352.52 255.919C1352.05 256.184 1351.51 256.319 1350.97 256.309C1350.42 256.309 1349.9 256.113 1349.49 255.757C1349.07 255.389 1348.78 254.672 1348.6 253.595C1348.41 252.493 1348.32 249.52 1348.32 244.691V227.502C1348.32 222.596 1347.98 219.349 1347.32 217.763C1346.28 215.329 1344.68 213.548 1342.51 212.403C1339.63 210.89 1335.95 210.131 1331.45 210.131ZM755.798 213.502C757.528 213.502 759.297 214.04 761.107 215.113C762.944 216.139 764.415 217.686 765.518 219.747C766.648 221.872 767.326 224.208 767.511 226.607V252.709C764.373 256.059 761.133 257.733 757.778 257.733C753.792 257.733 750.188 255.766 746.935 251.823C743.683 247.846 742.058 242.13 742.058 234.685C742.058 227.307 743.742 221.71 747.096 217.873C749.641 214.96 752.537 213.506 755.79 213.506L755.798 213.502ZM965.628 213.726C969.682 213.726 973.02 215.494 975.636 219.026C979.508 224.199 981.446 231.271 981.446 240.269C981.446 247.456 980.288 252.531 977.969 255.478C975.636 258.424 972.689 259.896 969.106 259.896C964.314 259.896 960.455 257.224 957.499 251.882C954.586 246.54 953.131 240.184 953.131 232.802C953.131 228.227 953.738 224.487 954.955 221.566C956.176 218.657 957.754 216.635 959.704 215.503C961.697 214.311 963.669 213.726 965.628 213.726ZM809.332 213.998C811.325 213.998 813.22 214.591 815.027 215.766C816.872 216.944 818.25 218.564 819.17 220.633C819.764 221.965 820.15 224.246 820.336 227.494H796.886C797.284 223.254 798.692 219.946 801.084 217.589C803.518 215.193 806.266 213.998 809.332 213.998ZM1103.35 232.081V251.373C1098.77 255.058 1095.09 256.906 1092.29 256.906C1090.23 256.906 1088.4 256.033 1086.82 254.307C1085.23 252.535 1084.43 250.322 1084.43 247.672C1084.43 245.573 1085.05 243.644 1086.31 241.863C1087.56 240.095 1089.65 238.395 1092.56 236.775C1094.19 235.855 1097.78 234.29 1103.35 232.081ZM1339.19 232.081V251.373C1334.62 255.058 1330.92 256.906 1328.12 256.906C1326.06 256.906 1324.24 256.033 1322.65 254.307C1321.06 252.535 1320.28 250.322 1320.28 247.672C1320.28 245.573 1320.9 243.644 1322.15 241.863C1323.41 240.095 1325.49 238.395 1328.41 236.775C1330.03 235.851 1333.62 234.286 1339.19 232.081Z" fill="#002855"/>
</g>
<rect x="635" width="12.72" height="315.88" fill="#EF3340"/>
<defs>
<clipPath id="clip0_5_6">
<rect width="1357" height="212" fill="white" transform="translate(0 52)"/>
</clipPath>
</defs>
</svg>
