<svg width="1357" height="317" viewBox="0 0 1357 317" fill="none" xmlns="http://www.w3.org/2000/svg">
<g clip-path="url(#clip0_5_8)">
<path d="M478.788 52.88C459.947 52.88 442.552 57.5694 426.607 66.9356C410.751 76.2085 398.296 89.3143 389.221 106.257C380.147 123.2 375.609 141.789 375.609 162.022C375.609 187.135 382.487 208.967 396.244 227.509C414.691 252.423 440.711 264.88 474.314 264.88C492.956 264.88 509.045 260.691 522.606 252.317C536.163 243.947 548.029 230.735 558.198 212.698L553.554 209.709C541.494 226.457 530.434 237.668 520.371 243.349C510.3 248.929 498.676 251.719 485.518 251.719C470.37 251.719 456.868 248.132 444.998 240.949C433.243 233.784 424.414 223.464 418.533 210.01C412.647 196.552 409.712 180.652 409.712 162.31C409.712 140.084 412.795 121.496 418.982 106.55C425.267 91.5997 433.837 80.741 444.702 73.9655C455.57 67.0882 467.728 63.6454 481.188 63.6454C497.23 63.6454 510.991 68.1822 522.449 77.2473C533.916 86.3209 542.745 101.169 548.923 121.801H553.554L548.923 52.88H543.691C542.588 57.6627 540.743 61.4024 538.152 64.0948C537.224 65.0081 536.125 65.7291 534.918 66.2166C533.711 66.7041 532.419 66.9485 531.117 66.9356C529.328 66.9356 526.338 65.8332 522.148 63.6411C507.9 56.467 493.452 52.88 478.796 52.88H478.788ZM2.39171 57.527L0 105.066H5.68244C6.3779 95.8948 8.56606 88.6147 12.2554 83.2299C15.9447 77.8536 20.3889 74.2114 25.571 72.3162C29.5572 70.917 36.2828 70.2216 45.7563 70.2216H70.123V225.109C70.123 236.468 69.0331 243.752 66.8407 246.945C63.2489 252.122 57.1721 254.708 48.5933 254.708H41.4182V260.233H127.388V254.708H120.357C112.483 254.708 106.652 252.614 102.865 248.433C100.172 245.338 98.8193 237.574 98.8193 225.113V70.2258H127.384C135.759 70.2258 142.481 71.625 147.57 74.4107C152.756 77.1074 156.89 81.3304 159.986 87.1138C161.873 90.7008 163.379 96.6877 164.468 105.066H170.151L167.903 57.5228L2.39171 57.527ZM183.623 57.527V63.0518H190.798C199.174 63.0518 205.157 65.0446 208.749 69.0302C211.336 72.0236 212.633 79.9439 212.633 92.7954V224.515C212.633 234.386 212.04 240.911 210.852 244.104C209.75 247.292 207.6 249.68 204.407 251.27C200.234 253.539 195.557 254.725 190.807 254.717H183.64V260.241H339.886L357.379 209.417H351.399C344.92 221.874 338.593 231.193 332.41 237.375C327.618 242.06 322.644 245.198 317.457 246.796C312.275 248.391 303.947 249.184 292.48 249.184H258.089C252.508 249.184 248.717 248.641 246.724 247.543C244.731 246.343 243.331 244.799 242.534 242.904C241.737 240.911 241.347 235.429 241.347 226.453V159.63H285.89C294.363 159.63 300.648 160.631 304.736 162.624C308.824 164.617 311.767 167.364 313.556 170.85C314.955 173.648 316.355 179.97 317.754 189.845H323.28V119.261H317.75C317.156 130.824 314.26 138.893 309.078 143.472C305.189 146.966 297.459 148.712 285.89 148.712H241.342V68.5765H296.958C307.03 68.5765 314.061 69.327 318.047 70.8194C323.03 72.914 326.774 75.9626 329.263 79.9482C331.85 83.9338 334.199 91.2605 336.299 101.924H342.129L339.882 57.527H183.623Z" fill="white"/>
<path d="M1061.19 52.88L1044.04 59.9184L1045.11 62.1105C1046.79 61.4406 1048.16 61.1056 1049.25 61.1056C1050.26 61.1056 1051.08 61.377 1051.7 61.9239C1052.37 62.4666 1052.86 63.4927 1053.15 64.9894C1053.45 66.4607 1053.59 70.4378 1053.59 76.925V129.162C1053.59 132.723 1053.31 135.123 1052.77 136.378C1052.22 137.629 1051.47 138.541 1050.51 139.079C1049.55 139.622 1047.74 139.898 1045.11 139.898V142.153H1073.31V139.898C1070.33 139.898 1068.3 139.601 1067.21 139.007C1066.13 138.391 1065.27 137.448 1064.76 136.315C1064.25 135.14 1064.01 132.753 1064.01 129.158V52.88H1061.19ZM1223.13 52.88C1221.33 52.88 1219.79 53.5075 1218.54 54.7626C1217.95 55.3434 1217.48 56.0391 1217.17 56.8069C1216.86 57.5747 1216.7 58.3984 1216.72 59.2273C1216.72 60.9869 1217.34 62.4921 1218.6 63.7556C1219.85 65.0106 1221.37 65.6339 1223.13 65.6339C1224.88 65.6339 1226.37 65.0106 1227.58 63.7556C1228.84 62.4921 1229.47 60.9869 1229.47 59.2273C1229.47 57.4677 1228.84 55.9794 1227.58 54.7626C1227.01 54.1552 1226.32 53.6742 1225.55 53.3506C1224.79 53.0271 1223.96 52.8682 1223.13 52.8842V52.88ZM1107.21 54.894L1100.62 76.5477H1102.76L1121.28 54.894H1107.21ZM732.911 57.0267L731.911 76.9971H734.294C734.591 73.1387 735.511 70.0859 737.063 67.8218C738.615 65.5618 740.481 64.0354 742.661 63.2426C744.336 62.6574 747.156 62.3649 751.133 62.3649H761.37V127.406C761.37 132.181 760.908 135.234 759.992 136.573C758.482 138.753 755.93 139.838 752.329 139.838H749.318V142.157H785.419V139.838H782.48C779.172 139.838 776.717 138.96 775.131 137.209C773.999 135.908 773.435 132.639 773.435 127.406V62.3649H785.427C788.947 62.3649 791.776 62.95 793.909 64.1202C796.088 65.2566 797.823 67.0289 799.125 69.4584C799.918 70.9636 800.541 73.4737 801.003 76.9929H803.395L802.453 57.0225H732.937L732.911 57.0267ZM828.677 82.8907C821.057 82.8907 814.713 85.6594 809.654 91.1799C804.629 96.6622 802.114 104.32 802.114 114.152C802.114 123.243 804.565 130.476 809.463 135.878C814.403 141.237 820.319 143.926 827.231 143.926C833.592 143.926 838.885 141.585 843.113 136.896C847.34 132.164 849.898 126.932 850.775 121.195L848.825 119.94C846.942 124.964 844.601 128.522 841.794 130.616C839.029 132.668 835.772 133.686 831.998 133.686C826.358 133.686 821.43 131.261 817.245 126.41C813.063 121.551 810.986 114.856 811.028 106.321H850.775C850.775 99.1978 848.702 93.5289 844.563 89.3016C840.42 85.0319 835.123 82.8992 828.677 82.8992V82.8907ZM886.435 82.9543C878.899 82.9543 872.441 85.7824 867.038 91.4343C861.682 97.0778 859.011 104.43 859.011 113.47C859.011 122.798 861.436 130.209 866.288 135.687C871.147 141.17 876.838 143.909 883.373 143.909C888.86 143.909 893.86 141.873 898.385 137.816C902.905 133.716 905.933 127.877 907.481 120.304L905.658 119.423C903.482 124.489 901.247 127.987 898.94 129.908C895.675 132.706 891.994 134.114 887.894 134.114C882.156 134.114 877.589 131.498 874.196 126.27C870.855 120.991 869.184 114.928 869.184 108.064C869.184 101.322 870.88 95.8948 874.273 91.799C876.817 88.7038 880.184 87.1562 884.374 87.1562C886.969 87.1562 889.005 87.7922 890.468 89.043C891.935 90.3362 892.77 92.223 892.978 94.6822C893.232 97.1541 893.707 98.8374 894.42 99.7108C895.671 101.301 897.541 102.094 900.005 102.094C901.849 102.094 903.27 101.61 904.279 100.648C905.327 99.643 905.848 98.3455 905.848 96.7555C905.848 93.5331 904.025 90.4379 900.391 87.4614C896.744 84.451 892.096 82.9416 886.439 82.9416L886.435 82.9543ZM929.706 82.9543L912.366 89.9842L913.312 92.2442C914.944 91.6166 916.348 91.3114 917.519 91.3114C918.608 91.3114 919.469 91.5742 920.097 92.117C920.767 92.6682 921.242 93.69 921.539 95.1952C921.869 96.7046 922.048 100.911 922.048 107.818V129.158C922.048 133.347 921.513 136.196 920.474 137.697C919.469 139.164 917.506 139.902 914.58 139.902H913.316V142.149H941.758V139.902C938.62 139.902 936.525 139.622 935.482 139.079C934.433 138.441 933.601 137.499 933.099 136.378C932.636 135.454 932.412 133.05 932.412 129.158V98.8331C937.352 93.3974 942.313 90.6796 947.296 90.6796C950.515 90.6796 952.792 91.8668 954.136 94.2582C955.515 96.6029 956.201 100.389 956.201 105.621V129.158C956.201 132.465 956.117 134.436 955.956 135.064C955.531 136.654 954.781 137.862 953.695 138.702C952.648 139.499 950.782 139.902 948.098 139.902H946.91V142.157H975.352V139.902C972.587 139.902 970.688 139.605 969.644 139.011C968.667 138.456 967.893 137.602 967.439 136.573C966.854 135.276 966.561 132.8 966.561 129.162V104.612C966.561 99.431 966.095 95.581 965.183 93.0667C963.839 89.4627 962.045 86.8933 959.776 85.3372C957.52 83.7514 954.815 82.9586 951.677 82.9586C945.57 82.9586 939.141 87.0205 932.407 95.1401V82.9586L929.706 82.9543ZM1008.07 82.9543C1003.29 82.9538 998.607 84.2539 994.511 86.7152C990.237 89.1871 986.781 93.0328 984.143 98.2692C981.552 103.455 980.254 108.687 980.254 113.957C980.254 121.208 982.417 127.737 986.721 133.554C991.827 140.466 998.714 143.917 1007.37 143.917C1012.69 143.917 1017.51 142.577 1021.82 139.902C1026.18 137.231 1029.58 133.245 1032.05 127.97C1034.52 122.692 1035.76 117.481 1035.76 112.325C1035.76 105.002 1033.52 98.5194 1029.04 92.8674C1023.76 86.2615 1016.77 82.9543 1008.07 82.9543ZM1108.02 82.9543C1103.26 82.9543 1098.74 84.2051 1094.47 86.7152C1090.2 89.1871 1086.74 93.0328 1084.1 98.2692C1081.51 103.455 1080.21 108.687 1080.21 113.957C1080.21 121.208 1082.37 127.737 1086.68 133.554C1091.79 140.466 1098.67 143.917 1107.33 143.917C1112.65 143.917 1117.47 142.577 1121.78 139.902C1126.14 137.231 1129.54 133.245 1132.01 127.97C1134.48 122.692 1135.72 117.481 1135.72 112.325C1135.72 105.002 1133.49 98.5194 1129 92.8674C1123.73 86.253 1116.73 82.9458 1108.02 82.9543ZM1171.57 82.9543C1164.87 82.9543 1159.37 85.0022 1155.06 89.1023C1150.8 93.2024 1148.66 98.1038 1148.66 103.798C1148.66 107.521 1149.61 110.934 1151.49 114.034C1153.37 117.086 1156.07 119.473 1159.59 121.186C1155.28 124.782 1152.51 127.572 1151.3 129.539C1150.13 131.507 1149.54 133.215 1149.54 134.682C1149.54 135.98 1149.98 137.15 1150.86 138.202C1151.78 139.206 1153.33 140.355 1155.51 141.653C1151.53 145.8 1149.4 148.055 1149.1 148.437C1146.89 151.201 1145.41 153.347 1144.71 154.899C1144.26 155.84 1144.03 156.866 1144.02 157.909C1144.02 160.173 1145.59 162.361 1148.73 164.447C1154.29 168.085 1161.12 169.904 1169.2 169.904C1179.71 169.904 1188.22 166.851 1194.75 160.733C1199.19 156.59 1201.41 152.155 1201.41 147.428C1201.41 143.993 1200.23 141.11 1197.89 138.761C1195.59 136.412 1192.49 134.975 1188.6 134.428C1186.04 134.051 1180.46 133.758 1171.83 133.55C1167.14 133.423 1164.22 133.279 1163.05 133.114C1161.04 132.817 1159.68 132.333 1158.97 131.663C1158.29 130.994 1157.96 130.307 1157.96 129.599C1157.96 128.759 1158.27 127.754 1158.89 126.588C1159.57 125.371 1160.82 123.968 1162.66 122.378C1165.63 123.217 1168.55 123.641 1171.4 123.641C1178.31 123.641 1183.81 121.733 1187.91 117.93C1192.01 114.123 1194.06 109.535 1194.06 104.184C1194.06 99.4946 1192.89 95.6404 1190.54 92.63H1198.01C1199.82 92.63 1200.86 92.5664 1201.15 92.4392C1201.44 92.3526 1201.68 92.1733 1201.85 91.9304C1202.06 91.5106 1202.16 90.7644 1202.16 89.6832C1202.16 88.7207 1202.03 88.0423 1201.78 87.665C1201.72 87.5406 1201.63 87.4309 1201.52 87.3432C1201.41 87.2555 1201.29 87.1917 1201.15 87.1562C1200.86 87.029 1199.81 86.9739 1198.01 86.9739H1185.84C1181.82 84.3026 1177.07 82.9586 1171.59 82.9586L1171.57 82.9543ZM1225.57 82.9543L1208.24 89.9842L1209.12 92.2442C1210.8 91.6166 1212.22 91.3114 1213.4 91.3114C1214.48 91.3114 1215.35 91.5742 1215.97 92.117C1216.59 92.6215 1217.05 93.5416 1217.34 94.8857C1217.72 96.7258 1217.91 100.767 1217.91 107.004V129.162C1217.91 132.723 1217.61 135.128 1217.02 136.383C1216.48 137.633 1215.74 138.545 1214.77 139.083C1213.81 139.626 1211.92 139.902 1209.12 139.902V142.157H1237.07V139.902C1234.34 139.902 1232.46 139.605 1231.41 139.011C1230.38 138.401 1229.56 137.481 1229.08 136.383C1228.59 135.17 1228.33 132.762 1228.33 129.162V82.9586H1225.57L1225.57 82.9543ZM1271.98 82.9543C1264.44 82.9543 1257.97 85.7824 1252.57 91.4343C1247.21 97.0778 1244.54 104.43 1244.54 113.47C1244.54 122.798 1246.97 130.209 1251.82 135.687C1256.68 141.17 1262.37 143.909 1268.9 143.909C1274.39 143.909 1279.39 141.873 1283.91 137.816C1288.43 133.716 1291.47 127.877 1293.02 120.304L1291.19 119.423C1289.02 124.489 1286.78 127.987 1284.48 129.908C1281.21 132.706 1277.52 134.114 1273.42 134.114C1267.7 134.114 1263.13 131.498 1259.74 126.27C1256.39 120.991 1254.72 114.928 1254.72 108.064C1254.72 101.322 1256.41 95.8948 1259.8 91.799C1262.35 88.7038 1265.72 87.1562 1269.91 87.1562C1272.5 87.1562 1274.53 87.7922 1276 89.043C1277.46 90.3362 1278.3 92.223 1278.51 94.6822C1278.76 97.1541 1279.24 98.8374 1279.96 99.7108C1281.21 101.301 1283.08 102.094 1285.54 102.094C1287.39 102.094 1288.81 101.61 1289.81 100.648C1290.85 99.643 1291.38 98.3455 1291.38 96.7555C1291.38 93.5331 1289.55 90.4379 1285.92 87.4614C1282.27 84.451 1277.63 82.9416 1271.98 82.9416L1271.98 82.9543ZM1329.31 82.9543C1324.53 82.9537 1319.84 84.2538 1315.74 86.7152C1311.48 89.1871 1308.02 93.0328 1305.38 98.2692C1302.79 103.455 1301.49 108.687 1301.49 113.957C1301.49 121.208 1303.65 127.737 1307.96 133.554C1313.07 140.466 1319.95 143.917 1328.61 143.917C1333.93 143.917 1338.75 142.577 1343.06 139.902C1347.41 137.231 1350.83 133.245 1353.3 127.97C1355.76 122.692 1357 117.481 1357 112.325C1357 105.002 1354.76 98.5194 1350.28 92.8674C1345.01 86.253 1338.02 82.9458 1329.31 82.9543ZM1170.51 85.9647C1173.86 85.9647 1176.6 87.3554 1178.74 90.1157C1181.62 93.8808 1183.07 99.0833 1183.07 105.74C1183.07 110.841 1182.05 114.589 1180 116.976C1177.95 119.363 1175.33 120.563 1172.14 120.563C1168.79 120.563 1166.03 119.177 1163.86 116.408C1161.02 112.774 1159.59 107.648 1159.59 101.034C1159.59 95.9287 1160.63 92.1424 1162.73 89.6705C1164.82 87.207 1167.41 85.9647 1170.51 85.9647ZM1006.12 87.0332C1010.73 87.0332 1014.52 89.0472 1017.49 93.0667C1021.88 98.9222 1024.08 106.961 1024.08 117.167C1024.08 125.329 1022.76 131.087 1020.13 134.432C1017.49 137.782 1014.14 139.452 1010.08 139.452C1004.64 139.452 1000.24 136.416 996.895 130.349C993.587 124.286 991.933 117.069 991.933 108.7C991.933 103.51 992.624 99.2614 994.007 95.9542C995.389 92.647 997.187 90.3446 999.409 89.043C1001.67 87.7074 1003.9 87.0332 1006.13 87.0332H1006.12ZM1106.08 87.0332C1110.69 87.0332 1114.48 89.0472 1117.46 93.0667C1121.85 98.9222 1124.05 106.961 1124.05 117.167C1124.05 125.329 1122.73 131.087 1120.09 134.432C1117.46 137.782 1114.11 139.452 1110.04 139.452C1104.6 139.452 1100.2 136.416 1096.85 130.349C1093.55 124.286 1091.89 117.069 1091.89 108.7C1091.89 103.51 1092.59 99.2614 1093.97 95.9542C1095.35 92.647 1097.15 90.3446 1099.37 89.043C1101.63 87.7074 1103.87 87.0332 1106.09 87.0332H1106.08ZM1327.37 87.0332C1331.97 87.0332 1335.76 89.0472 1338.73 93.0667C1343.12 98.9222 1345.32 106.961 1345.32 117.167C1345.32 125.329 1344 131.087 1341.36 134.432C1338.73 137.782 1335.38 139.452 1331.31 139.452C1325.88 139.452 1321.48 136.416 1318.13 130.349C1314.83 124.286 1313.17 117.069 1313.17 108.7C1313.17 103.51 1313.86 99.2614 1315.24 95.9542C1316.62 92.647 1318.42 90.3446 1320.65 89.043C1322.91 87.7074 1325.15 87.0332 1327.37 87.0332ZM825.158 87.3512C827.418 87.3512 829.576 88.0211 831.625 89.361C833.71 90.6895 835.35 92.6124 836.332 94.8814C837.01 96.3866 837.439 98.9815 837.646 102.666H811.024C811.49 97.8537 813.08 94.1098 815.799 91.4301C818.555 88.708 821.676 87.347 825.149 87.347L825.158 87.3512ZM1158.96 142.153C1164.02 142.861 1171.26 143.349 1180.68 143.595C1187.13 143.76 1191.44 144.316 1193.62 145.227C1195.75 146.156 1196.82 147.703 1196.82 149.883C1196.82 152.893 1195.01 155.717 1191.42 158.354C1187.85 161.034 1182.31 162.382 1174.78 162.382C1166.86 162.382 1160.81 161.081 1156.63 158.477C1154.2 156.976 1152.99 155.212 1152.99 153.207C1152.99 151.655 1153.49 149.963 1154.5 148.119C1155.5 146.283 1156.99 144.286 1158.95 142.153H1158.96ZM774.156 184.524L759.059 190.714L759.767 192.652C761.353 192.058 762.625 191.761 763.584 191.761C764.384 191.733 765.168 191.988 765.797 192.482C766.391 192.965 766.815 193.864 767.07 195.196C767.367 196.523 767.515 200.08 767.515 205.868V215.208C764.602 212.368 760.921 210.951 756.46 210.951C749.268 210.951 743.382 213.979 738.81 220.025C734.243 226.029 731.957 232.66 731.957 239.928C731.957 247.191 734.022 253.144 738.149 257.791C742.279 262.4 747.113 264.702 752.643 264.702C755.278 264.723 757.886 264.158 760.276 263.048C762.634 261.904 765.047 260.038 767.519 257.46V264.71H770.064L785.118 258.456L784.499 256.527C782.845 257.163 781.517 257.468 780.521 257.468C779.732 257.478 778.965 257.206 778.358 256.701C777.765 256.192 777.328 255.276 777.031 253.987C776.776 252.656 776.649 249.027 776.649 243.091V184.532H774.156V184.524ZM1241.73 184.524C1240.15 184.524 1238.8 185.075 1237.7 186.177C1237.18 186.688 1236.76 187.3 1236.49 187.976C1236.21 188.652 1236.07 189.377 1236.09 190.108C1236.09 191.655 1236.65 192.974 1237.76 194.085C1238.87 195.187 1240.19 195.743 1241.74 195.743C1243.29 195.743 1244.6 195.191 1245.67 194.085C1246.77 192.982 1247.33 191.655 1247.33 190.108C1247.33 188.556 1246.78 187.246 1245.67 186.173C1245.16 185.639 1244.55 185.215 1243.88 184.931C1243.2 184.646 1242.47 184.506 1241.74 184.519L1241.73 184.524ZM905.844 186.457C899.061 186.408 892.392 188.202 886.549 191.647C880.68 195.081 876.079 199.932 872.725 206.194C869.366 212.461 867.678 219.338 867.678 226.822C867.678 236.116 870.223 244.189 875.312 251.045C882.139 260.263 891.757 264.867 904.19 264.867C911.085 264.867 917.039 263.32 922.052 260.225C927.068 257.129 931.462 252.236 935.219 245.567L933.51 244.464C929.045 250.655 924.952 254.802 921.225 256.905C917.502 258.969 913.21 260.008 908.333 260.008C902.736 260.008 897.732 258.685 893.347 256.027C888.996 253.377 885.735 249.557 883.56 244.579C881.38 239.601 880.294 233.724 880.294 226.94C880.294 218.715 881.439 211.838 883.729 206.309C886.045 200.78 889.221 196.756 893.241 194.25C897.257 191.706 901.752 190.434 906.726 190.434C912.663 190.434 917.769 192.117 922.005 195.467C926.246 198.825 929.511 204.32 931.801 211.952H933.51L931.797 186.461H929.846C929.447 188.229 928.765 189.616 927.811 190.608C927.467 190.946 927.061 191.212 926.614 191.391C926.167 191.57 925.688 191.658 925.207 191.651C924.541 191.651 923.434 191.257 921.886 190.443C916.611 187.788 911.268 186.457 905.848 186.457H905.844ZM1151.59 188.17V190.218H1154.41C1157.25 190.218 1159.39 191.023 1160.83 192.652C1161.86 193.796 1162.38 196.722 1162.38 201.437V249.87C1162.38 254.144 1161.99 256.858 1161.21 258.003C1159.85 260.068 1157.58 261.098 1154.42 261.098H1151.59V263.146H1183.72V261.102H1180.79C1177.99 261.102 1175.89 260.297 1174.49 258.668C1173.45 257.524 1172.94 254.59 1172.94 249.866V228.073L1174.65 228.2H1176.2C1177.38 228.2 1178.91 228.157 1180.79 228.073L1206.17 263.137H1226.2V261.098C1222.11 260.653 1218.79 259.618 1216.25 258.003C1213.7 256.375 1210.66 253.097 1207.11 248.157L1191.62 226.652C1197.93 225.253 1202.58 222.849 1205.56 219.457C1208.58 216.065 1210.1 212.071 1210.1 207.458C1210.1 203.15 1208.77 199.444 1206.11 196.349C1203.62 193.295 1200.27 191.058 1196.49 189.925C1192.73 188.747 1186.86 188.161 1178.9 188.161H1151.58H1151.59L1151.59 188.17ZM1181.61 192.368C1186.45 192.368 1190.32 193.852 1193.23 196.798C1196.18 199.711 1197.66 203.506 1197.66 208.187C1197.66 212.978 1195.84 216.921 1192.19 220.021C1188.57 223.116 1183.18 224.668 1176.03 224.668H1174.76C1174.15 224.629 1173.54 224.612 1172.93 224.617V193.419C1176.58 192.719 1179.47 192.363 1181.61 192.368ZM1056.23 195.857C1054.72 199.58 1053.54 202.141 1052.69 203.54C1051.12 206.092 1049.2 208.418 1047 210.451C1044.9 212.368 1042.83 213.733 1040.81 214.543V216.374H1048.82V250.439C1048.82 254.085 1049.2 256.799 1049.98 258.571C1050.75 260.301 1051.95 261.645 1053.57 262.599C1055.08 263.489 1056.8 263.965 1058.55 263.981C1061.06 263.981 1063.5 263.082 1065.86 261.276C1068.22 259.436 1070.05 256.71 1071.33 253.093H1069.17C1068.55 254.568 1067.67 255.692 1066.53 256.468C1065.48 257.173 1064.24 257.556 1062.98 257.57C1061.5 257.57 1060.3 257.006 1059.33 255.862C1058.41 254.717 1057.96 252.499 1057.96 249.222V216.366H1069.79V212.491H1057.96V195.853L1056.23 195.857ZM812.432 210.951C805.723 210.951 800.134 213.389 795.668 218.257C791.237 223.091 789.028 229.832 789.028 238.494C789.028 246.491 791.182 252.868 795.499 257.617C799.85 262.34 805.07 264.698 811.147 264.698C816.757 264.698 821.426 262.637 825.149 258.507C828.873 254.339 831.116 249.73 831.892 244.685L830.179 243.583C828.512 248.001 826.447 251.13 823.987 252.974C821.549 254.78 818.678 255.688 815.358 255.688C810.383 255.688 806.045 253.551 802.356 249.268C798.667 244.994 796.843 239.092 796.886 231.571H831.888C831.888 225.308 830.064 220.305 826.417 216.582C822.762 212.826 818.106 210.943 812.423 210.943L812.432 210.951ZM967.342 211.011C963.136 211.012 959.011 212.155 955.404 214.318C951.643 216.497 948.598 219.894 946.278 224.503C943.989 229.069 942.844 233.682 942.844 238.325C942.844 244.702 944.752 250.451 948.547 255.582C953.042 261.658 959.106 264.698 966.739 264.698C971.425 264.698 975.666 263.523 979.461 261.166C983.303 258.804 986.306 255.302 988.477 250.651C990.652 246.012 991.742 241.42 991.742 236.883C991.742 230.438 989.77 224.714 985.831 219.741C981.187 213.915 975.026 211.007 967.354 211.007L967.342 211.011ZM1016.58 211.011C1012.04 211.011 1008.34 212.41 1005.46 215.208C1002.62 218.007 1001.2 221.496 1001.2 225.66C1001.2 228.865 1002.03 231.524 1003.69 233.631C1005.35 235.76 1008.85 238.16 1014.2 240.814C1019.54 243.468 1023.1 245.66 1024.87 247.398C1026.68 249.128 1027.58 251.257 1027.58 253.801C1027.58 255.9 1026.78 257.714 1025.15 259.228C1023.56 260.704 1021.5 261.429 1018.96 261.429C1015.35 261.429 1012.08 260.127 1009.16 257.511C1006.25 254.886 1004.28 251.002 1003.25 245.842H1001.42V263.913H1003.25C1003.73 262.955 1004.39 262.48 1005.24 262.48C1006.01 262.48 1007 262.667 1008.22 263.031C1012.21 264.134 1015.74 264.685 1018.84 264.685C1023.15 264.685 1027.05 263.286 1030.52 260.487C1034.02 257.647 1035.77 253.924 1035.77 249.315C1035.77 243.337 1032.02 238.528 1024.54 234.882L1016.46 230.947C1012.96 229.251 1010.64 227.649 1009.5 226.135C1008.31 224.651 1007.73 222.887 1007.73 220.826C1007.73 219.173 1008.51 217.659 1010.1 216.294C1011.68 214.929 1013.77 214.246 1016.35 214.246C1019.75 214.246 1022.53 215.221 1024.71 217.176C1026.91 219.126 1028.72 222.815 1030.13 228.229H1031.95V210.99H1030.13C1029.68 211.88 1029.3 212.44 1028.97 212.698C1028.57 212.984 1028.08 213.124 1027.58 213.097C1026.96 213.097 1025.7 212.813 1023.82 212.262C1020.98 211.414 1018.57 210.99 1016.58 210.99L1016.58 211.011ZM1095.61 211.011C1089.75 211.011 1085.2 212.342 1081.96 214.996C1078.7 217.646 1077.08 220.559 1077.08 223.731C1077.08 225.384 1077.5 226.699 1078.35 227.661C1079.24 228.62 1080.36 229.094 1081.73 229.094C1083.13 229.094 1084.26 228.632 1085.11 227.712C1085.99 226.792 1086.44 225.486 1086.44 223.79L1086.32 220.58C1086.32 218.957 1087.02 217.519 1088.42 216.264C1089.79 215.013 1091.63 214.386 1093.96 214.386C1097.01 214.386 1099.33 215.327 1100.91 217.21C1102.54 219.088 1103.36 222.552 1103.36 227.598V229.599C1094.65 232.766 1088.42 235.45 1084.65 237.663C1080.94 239.881 1078.32 242.243 1076.81 244.744C1075.71 246.55 1075.16 248.687 1075.16 251.164C1075.16 255.064 1076.27 258.223 1078.52 260.619C1080.81 263.014 1083.7 264.214 1087.2 264.214C1089.45 264.214 1091.57 263.748 1093.56 262.832C1094.9 262.205 1098.16 259.89 1103.36 255.866C1103.39 258.889 1103.95 261.022 1105.01 262.272C1106.09 263.523 1107.52 264.155 1109.33 264.155C1113.09 264.155 1117.04 261.399 1121.17 255.866V252.771C1118.96 254.975 1117.46 256.319 1116.69 256.799C1116.22 257.064 1115.69 257.199 1115.14 257.189C1114.59 257.193 1114.06 256.997 1113.64 256.637C1113.24 256.269 1112.96 255.552 1112.77 254.475C1112.58 253.373 1112.49 250.4 1112.49 245.571V228.382C1112.49 223.476 1112.16 220.229 1111.49 218.643C1110.46 216.209 1108.86 214.428 1106.68 213.283C1103.8 211.774 1100.11 211.015 1095.61 211.011ZM1243.89 211.011L1228.63 217.201L1229.4 219.194C1230.88 218.643 1232.13 218.363 1233.16 218.363C1234.12 218.363 1234.87 218.609 1235.43 219.084C1235.98 219.537 1236.38 220.347 1236.64 221.522C1236.97 223.146 1237.13 226.695 1237.13 232.19V251.719C1237.13 254.857 1236.88 256.977 1236.37 258.079C1235.89 259.181 1235.22 259.979 1234.37 260.453C1233.52 260.937 1231.87 261.174 1229.4 261.174V263.167H1254.01V261.174C1251.62 261.174 1249.95 260.92 1249.03 260.403C1248.13 259.86 1247.42 259.049 1247 258.083C1246.55 257.015 1246.33 254.895 1246.33 251.723V211.019H1243.89V211.011ZM1284.77 211.011C1278.13 211.011 1272.43 213.5 1267.68 218.473C1262.95 223.447 1260.59 229.921 1260.59 237.884C1260.59 246.11 1262.74 252.631 1267.01 257.46C1271.28 262.294 1276.3 264.71 1282.05 264.71C1286.89 264.71 1291.29 262.921 1295.27 259.343C1299.26 255.73 1301.93 250.587 1303.3 243.917L1301.69 243.146C1299.78 247.611 1297.81 250.684 1295.77 252.38C1292.9 254.848 1289.65 256.086 1286.04 256.086C1280.98 256.086 1276.97 253.78 1273.99 249.175C1271.03 244.52 1269.55 239.186 1269.55 233.139C1269.55 227.203 1271.04 222.425 1274.03 218.808C1276.28 216.082 1279.25 214.725 1282.94 214.725C1285.22 214.725 1287.01 215.281 1288.3 216.383C1289.6 217.528 1290.34 219.181 1290.52 221.361C1290.74 223.536 1291.16 225.007 1291.79 225.783C1292.9 227.182 1294.54 227.882 1296.71 227.882C1298.34 227.882 1299.59 227.458 1300.47 226.61C1301.4 225.719 1301.85 224.575 1301.85 223.171C1301.85 220.33 1300.25 217.617 1297.04 214.988C1293.84 212.338 1289.75 211.011 1284.77 211.011ZM1331.45 211.011C1325.59 211.011 1321.02 212.342 1317.78 214.996C1314.54 217.646 1312.92 220.559 1312.92 223.731C1312.92 225.384 1313.34 226.699 1314.19 227.661C1314.62 228.129 1315.14 228.5 1315.72 228.747C1316.3 228.995 1316.93 229.113 1317.57 229.094C1318.97 229.094 1320.09 228.632 1320.94 227.712C1321.83 226.792 1322.27 225.486 1322.27 223.79L1322.16 220.58C1322.16 218.957 1322.86 217.519 1324.26 216.264C1325.62 215.013 1327.46 214.386 1329.78 214.386C1332.84 214.386 1335.17 215.327 1336.76 217.21C1338.38 219.088 1339.19 222.552 1339.19 227.598V229.599C1330.5 232.766 1324.27 235.45 1320.51 237.663C1316.77 239.881 1314.16 242.243 1312.64 244.744C1311.53 246.55 1310.98 248.687 1310.98 251.164C1310.98 255.064 1312.1 258.223 1314.35 260.619C1316.64 263.014 1319.53 264.214 1323.05 264.214C1325.29 264.214 1327.41 263.748 1329.41 262.832C1330.73 262.205 1333.99 259.89 1339.19 255.866C1339.24 258.889 1339.79 261.022 1340.85 262.272C1341.92 263.523 1343.36 264.155 1345.17 264.155C1348.93 264.155 1352.87 261.399 1357 255.866V252.771C1354.79 254.975 1353.29 256.319 1352.52 256.799C1352.05 257.064 1351.51 257.199 1350.97 257.189C1350.42 257.189 1349.9 256.993 1349.49 256.637C1349.07 256.269 1348.78 255.552 1348.6 254.475C1348.41 253.373 1348.32 250.4 1348.32 245.571V228.382C1348.32 223.476 1347.98 220.229 1347.32 218.643C1346.28 216.209 1344.68 214.428 1342.51 213.283C1339.63 211.77 1335.95 211.011 1331.45 211.011ZM755.798 214.382C757.528 214.382 759.297 214.92 761.107 215.993C762.944 217.019 764.415 218.566 765.518 220.627C766.648 222.752 767.326 225.088 767.511 227.487V253.589C764.373 256.939 761.133 258.613 757.778 258.613C753.792 258.613 750.188 256.646 746.935 252.703C743.683 248.726 742.058 243.01 742.058 235.565C742.058 228.187 743.742 222.59 747.096 218.753C749.641 215.84 752.537 214.386 755.79 214.386L755.798 214.382ZM965.628 214.606C969.682 214.606 973.02 216.374 975.636 219.906C979.508 225.079 981.446 232.151 981.446 241.149C981.446 248.336 980.288 253.411 977.969 256.358C975.636 259.304 972.689 260.776 969.106 260.776C964.314 260.776 960.455 258.104 957.499 252.762C954.586 247.42 953.131 241.064 953.131 233.682C953.131 229.107 953.738 225.367 954.955 222.446C956.176 219.537 957.754 217.515 959.704 216.383C961.697 215.191 963.669 214.606 965.628 214.606ZM809.332 214.878C811.325 214.878 813.22 215.471 815.027 216.646C816.872 217.824 818.25 219.444 819.17 221.513C819.764 222.845 820.15 225.126 820.336 228.374H796.886C797.284 224.134 798.692 220.826 801.084 218.469C803.518 216.073 806.266 214.878 809.332 214.878ZM1103.35 232.961V252.253C1098.77 255.938 1095.09 257.786 1092.29 257.786C1090.23 257.786 1088.4 256.913 1086.82 255.187C1085.23 253.415 1084.43 251.202 1084.43 248.552C1084.43 246.453 1085.05 244.524 1086.31 242.743C1087.56 240.975 1089.65 239.275 1092.56 237.655C1094.19 236.735 1097.78 235.17 1103.35 232.961ZM1339.19 232.961V252.253C1334.62 255.938 1330.92 257.786 1328.12 257.786C1326.06 257.786 1324.24 256.913 1322.65 255.187C1321.06 253.415 1320.28 251.202 1320.28 248.552C1320.28 246.453 1320.9 244.524 1322.15 242.743C1323.41 240.975 1325.49 239.275 1328.41 237.655C1330.03 236.731 1333.62 235.166 1339.19 232.961Z" fill="white"/>
</g>
<rect x="635" y="0.880005" width="12.72" height="315.88" fill="#EF3340"/>
<defs>
<clipPath id="clip0_5_8">
<rect width="1357" height="212" fill="white" transform="translate(0 52.88)"/>
</clipPath>
</defs>
</svg>
