<svg width="103" height="103" viewBox="0 0 103 103" fill="none" xmlns="http://www.w3.org/2000/svg">
<circle cx="51.2217" cy="51.2217" r="47.2217" fill="white" stroke="black" stroke-width="8"/>
<mask id="path-2-inside-1_1_8" fill="white">
<path d="M52.8815 27.0532C57.672 27.371 62.2608 29.1023 66.0674 32.028C69.874 34.9537 72.7276 38.9425 74.2672 43.49C75.8069 48.0375 75.9635 52.9395 74.7172 57.576C73.4709 62.2125 70.8777 66.3753 67.2656 69.538C63.6534 72.7007 59.1845 74.7212 54.4241 75.3441C49.6636 75.967 44.8253 75.1643 40.521 73.0374C36.2167 70.9105 32.6398 67.5551 30.2426 63.3953C27.8453 59.2356 26.7354 54.4584 27.0532 49.6678L38.0822 50.3995C37.9091 53.0087 38.5137 55.6106 39.8193 57.8763C41.125 60.1419 43.0732 61.9695 45.4176 63.1279C47.7619 64.2864 50.3972 64.7236 52.99 64.3843C55.5829 64.0451 58.0169 62.9445 59.9843 61.2219C61.9516 59.4993 63.364 57.232 64.0428 54.7067C64.7216 52.1814 64.6364 49.5115 63.7978 47.0347C62.9592 44.5579 61.405 42.3853 59.3317 40.7918C57.2583 39.1983 54.759 38.2553 52.1498 38.0822L52.8815 27.0532Z"/>
</mask>
<path d="M52.8815 27.0532C57.672 27.371 62.2608 29.1023 66.0674 32.028C69.874 34.9537 72.7276 38.9425 74.2672 43.49C75.8069 48.0375 75.9635 52.9395 74.7172 57.576C73.4709 62.2125 70.8777 66.3753 67.2656 69.538C63.6534 72.7007 59.1845 74.7212 54.4241 75.3441C49.6636 75.967 44.8253 75.1643 40.521 73.0374C36.2167 70.9105 32.6398 67.5551 30.2426 63.3953C27.8453 59.2356 26.7354 54.4584 27.0532 49.6678L38.0822 50.3995C37.9091 53.0087 38.5137 55.6106 39.8193 57.8763C41.125 60.1419 43.0732 61.9695 45.4176 63.1279C47.7619 64.2864 50.3972 64.7236 52.99 64.3843C55.5829 64.0451 58.0169 62.9445 59.9843 61.2219C61.9516 59.4993 63.364 57.232 64.0428 54.7067C64.7216 52.1814 64.6364 49.5115 63.7978 47.0347C62.9592 44.5579 61.405 42.3853 59.3317 40.7918C57.2583 39.1983 54.759 38.2553 52.1498 38.0822L52.8815 27.0532Z" fill="white" stroke="black" stroke-width="16" mask="url(#path-2-inside-1_1_8)"/>
</svg>
